<?xml version="1.0" encoding="UTF-8" standalone="no"?><!DOCTYPE svg PUBLIC "-//W3C//DTD SVG 1.1//EN" "http://www.w3.org/Graphics/SVG/1.1/DTD/svg11.dtd"><svg width="100%" height="100%" viewBox="0 0 463 136" version="1.1" xmlns="http://www.w3.org/2000/svg" xmlns:xlink="http://www.w3.org/1999/xlink" xml:space="preserve" xmlns:serif="http://www.serif.com/" style="fill-rule:evenodd;clip-rule:evenodd;stroke-linejoin:round;stroke-miterlimit:2;"><g><g><path d="M447.056,118.998c-6.231,6.232 -16.35,6.232 -22.581,0l-75.989,-75.988c-6.231,-6.232 -6.231,-16.35 0,-22.582c6.232,-6.232 16.35,-6.232 22.582,0l75.988,75.989c6.232,6.231 6.232,16.35 0,22.581Z" style="fill:url(#_Linear1);"/><path d="M458.208,72.363c-6.232,6.231 -16.35,6.231 -22.581,-0l-40.506,-40.505c-6.231,-6.232 -6.231,-16.35 0,-22.582c6.232,-6.231 16.35,-6.231 22.582,0l40.505,40.505c6.232,6.232 6.232,16.35 0,22.582Z" style="fill:url(#_Linear2);"/><path d="M399.914,130.657c-6.232,6.231 -16.35,6.231 -22.582,-0l-40.505,-40.505c-6.231,-6.232 -6.231,-16.35 0,-22.582c6.232,-6.231 16.35,-6.231 22.582,0l40.505,40.505c6.231,6.232 6.231,16.35 -0,22.582Z" style="fill:url(#_Linear3);"/></g><g transform="matrix(134.284,0,0,134.284,295.517,98.8118)"></g><text x="-5.639px" y="98.812px" style="font-family:'LMNTitr', 'LMN Titr';font-size:134.284px;fill:url(#_Linear4);">qÄH¼±ÃU</text></g><defs><linearGradient id="_Linear1" x1="0" y1="0" x2="1" y2="0" gradientUnits="userSpaceOnUse" gradientTransform="matrix(481.715,115.485,-115.485,481.715,-87.3609,-46.2334)"><stop offset="0" style="stop-color:#00fbab;stop-opacity:1"/><stop offset="1" style="stop-color:#64cbff;stop-opacity:1"/></linearGradient><linearGradient id="_Linear2" x1="0" y1="0" x2="1" y2="0" gradientUnits="userSpaceOnUse" gradientTransform="matrix(481.715,115.485,-115.485,481.715,-87.3609,-46.2334)"><stop offset="0" style="stop-color:#00fbab;stop-opacity:0.79"/><stop offset="1" style="stop-color:#64cbff;stop-opacity:0.79"/></linearGradient><linearGradient id="_Linear3" x1="0" y1="0" x2="1" y2="0" gradientUnits="userSpaceOnUse" gradientTransform="matrix(481.715,115.485,-115.485,481.715,-87.3609,-46.2334)"><stop offset="0" style="stop-color:#00fbab;stop-opacity:0.79"/><stop offset="1" style="stop-color:#64cbff;stop-opacity:0.79"/></linearGradient><linearGradient id="_Linear4" x1="0" y1="0" x2="1" y2="0" gradientUnits="userSpaceOnUse" gradientTransform="matrix(418.422,100.311,-100.311,418.422,-22.8155,-34.4787)"><stop offset="0" style="stop-color:#00fbab;stop-opacity:1"/><stop offset="1" style="stop-color:#64cbff;stop-opacity:1"/></linearGradient></defs></svg>