<?xml version="1.0" encoding="UTF-8" standalone="no"?><!DOCTYPE svg PUBLIC "-//W3C//DTD SVG 1.1//EN" "http://www.w3.org/Graphics/SVG/1.1/DTD/svg11.dtd"><svg width="100%" height="100%" viewBox="0 0 166 62" version="1.1" xmlns="http://www.w3.org/2000/svg" xmlns:xlink="http://www.w3.org/1999/xlink" xml:space="preserve" xmlns:serif="http://www.serif.com/" style="fill-rule:evenodd;clip-rule:evenodd;stroke-linejoin:round;stroke-miterlimit:2;"><circle cx="134.716" cy="31" r="31" style="fill:#09b850;"/><path d="M117.332,33.26c1.356,-0 2.455,-1.1 2.455,-2.456c0,-1.356 -1.099,-2.455 -2.455,-2.455c-1.356,-0 -2.456,1.099 -2.456,2.455c0,1.356 1.1,2.456 2.456,2.456Z" style="fill:#fff;fill-rule:nonzero;"/><path d="M152.692,37.336l-0.344,-0c-0.835,-0 -1.474,-0.639 -1.474,-1.474l0,-10.116c0,-0.835 0.639,-1.474 1.474,-1.474l0.344,0c0.834,0 1.473,0.639 1.473,1.474l-0,10.165c-0,0.786 -0.639,1.425 -1.473,1.425Z" style="fill:#fff;fill-rule:nonzero;"/><path d="M146.158,43.916l-0.343,-0c-0.835,-0 -1.474,-0.638 -1.474,-1.473l0,-23.278c0,-0.835 0.639,-1.474 1.474,-1.474l0.343,0c0.835,0 1.474,0.639 1.474,1.474l-0,23.229c-0,0.834 -0.688,1.522 -1.474,1.522Z" style="fill:#fff;fill-rule:nonzero;"/><path d="M139.578,35.715l-0.344,0c-0.834,0 -1.473,-0.638 -1.473,-1.473l0,-6.876c0,-0.835 0.639,-1.473 1.473,-1.473l0.344,0c0.835,0 1.474,0.638 1.474,1.473l-0,6.876c-0,0.835 -0.639,1.473 -1.474,1.473Z" style="fill:#fff;fill-rule:nonzero;"/><path d="M121.408,31.099c0.295,1.228 1.031,1.915 1.915,2.062c0.491,0.099 0.933,0.442 1.13,0.884l6.433,15.47c0.246,0.54 0.786,0.884 1.375,0.884l0.786,-0c0.835,-0 1.473,-0.639 1.473,-1.473l0,-36.293c0,-0.834 -0.638,-1.473 -1.473,-1.473l-0.835,0c-0.589,0 -1.129,0.344 -1.375,0.884l-6.433,15.519c-0.197,0.491 -0.639,0.786 -1.13,0.884c-0.884,0.196 -1.621,0.835 -1.915,2.062c-0,0.197 -0,0.393 0.049,0.59Zm5.451,-0.884l3.143,-7.612c0.246,-0.639 1.228,-0.442 1.228,0.245l-0,15.863c-0,0.687 -0.982,0.884 -1.228,0.245l-3.143,-7.612c-0.147,-0.343 -0.147,-0.736 0,-1.129Z" style="fill:#fff;fill-rule:nonzero;"/><path d="M27.026,52.608c-0.42,0.558 -0.884,1.098 -1.394,1.62c-2.891,2.963 -6.441,4.445 -10.647,4.445c-4.063,-0 -7.576,-1.446 -10.54,-4.338c-2.963,-2.892 -4.445,-6.441 -4.445,-10.647c0,-3.012 0.813,-5.712 2.438,-8.102c0.462,-0.694 1.215,-1.477 2.259,-2.349c-0.677,0.583 -1.31,1.533 -1.901,2.851c-0.526,1.338 -0.788,2.533 -0.788,3.585c-0,2.342 0.872,4.409 2.617,6.202c1.744,1.792 3.812,2.688 6.202,2.688c2.485,0 4.636,-0.872 6.452,-2.617c1.817,-1.744 2.725,-3.86 2.725,-6.345l0,-25.525c0,-2.007 -0.143,-3.37 -0.43,-4.087c-0.43,-1.29 -1.458,-2.007 -3.083,-2.151l-0.789,0l-0.574,0.144l1.578,-0.574c2.485,-0.621 4.421,-0.932 5.808,-0.932c4.971,-0 7.456,2.151 7.456,6.453l0,30.687c0,3.103 -0.824,5.879 -2.471,8.328c-0.669,-0.867 -1.064,-1.874 -1.187,-3.022c-0,1.334 0.238,2.563 0.714,3.686Zm0.473,-0.664c0.11,0.144 0.229,0.284 0.354,0.419c0.885,0.956 1.972,1.434 3.263,1.434c1.29,0 2.425,-0.525 3.405,-1.577c0.98,-1.052 1.47,-2.175 1.47,-3.37l0,-22.227c0,-4.349 -1.123,-6.524 -3.37,-6.524l-0.86,-0l-0.574,0.143l1.649,-0.717l2.725,-0.573l2.94,-0.215c4.971,-0 7.456,2.103 7.456,6.309l0,8.676l4.921,-0l-0,-6.095c-0,-1.96 -0.144,-3.513 -0.431,-4.66c-0.525,-1.817 -1.625,-2.725 -3.298,-2.725l-0.788,0l-0.502,0.144l1.649,-0.574c1.864,-0.574 3.752,-0.86 5.664,-0.86c2.055,-0 3.728,0.406 5.019,1.218c1.577,1.1 2.366,2.821 2.366,5.163l0,8.389l3.028,-0l-0.215,-2.582c0,-3.441 1.195,-6.369 3.585,-8.783c2.39,-2.414 5.306,-3.62 8.747,-3.62l18.284,-0c-2.581,0.286 -4.302,1.816 -5.163,4.588l-0.573,2.223l-0.072,2.438l0,1.075l0.072,0.645l0.071,1.434c0,1.769 -0.31,3.37 -0.932,4.804c-0.286,0.717 -0.645,1.41 -1.075,2.08c-0.43,0.669 -0.98,1.338 -1.649,2.007c-2.438,2.438 -5.425,3.657 -8.963,3.657l-29.745,-0l0,5.234c0,2.724 -0.956,5.031 -2.868,6.919c-1.912,1.888 -4.254,2.832 -7.026,2.832c-2.39,-0 -4.613,-0.932 -6.668,-2.796c-1.066,-0.968 -1.856,-2.057 -2.369,-3.269c0.164,-0.218 0.322,-0.44 0.473,-0.664Zm48.675,-24.177c-1.812,-0 -3.283,1.47 -3.283,3.282c0,1.811 1.471,3.282 3.283,3.282c1.811,-0 3.282,-1.471 3.282,-3.282c-0,-1.812 -1.471,-3.282 -3.282,-3.282Zm-30.36,-13.834l-5.951,1.577l-1.147,0.143c-2.103,0 -3.585,-1.123 -4.446,-3.369l-0.143,-1.148c0,-0.86 0.287,-1.792 0.86,-2.796c0.956,-1.195 2.199,-1.792 3.729,-1.792c2.294,-0 3.728,1.075 4.302,3.226l0.502,1.649c0.525,1.673 1.29,2.51 2.294,2.51Zm13.224,38.684l-5.951,1.577l-1.147,0.144c-2.103,-0 -3.585,-1.124 -4.446,-3.37l-0.143,-1.147c-0,-0.861 0.287,-1.793 0.86,-2.797c0.956,-1.195 2.199,-1.792 3.729,-1.792c2.294,-0 3.728,1.075 4.302,3.226l0.502,1.649c0.525,1.673 1.29,2.51 2.294,2.51Zm11.089,-0l-5.951,1.577l-1.147,0.144c-2.103,-0 -3.585,-1.124 -4.445,-3.37l-0.143,-1.147c-0,-0.861 0.286,-1.793 0.86,-2.797c0.956,-1.195 2.199,-1.792 3.728,-1.792c2.295,-0 3.729,1.075 4.302,3.226l0.502,1.649c0.526,1.673 1.291,2.51 2.294,2.51Z" style="fill:#fff;"/></svg>