<?xml version="1.0" encoding="UTF-8" standalone="no"?><!DOCTYPE svg PUBLIC "-//W3C//DTD SVG 1.1//EN" "http://www.w3.org/Graphics/SVG/1.1/DTD/svg11.dtd"><svg width="100%" height="100%" viewBox="0 0 202 51" version="1.1" xmlns="http://www.w3.org/2000/svg" xmlns:xlink="http://www.w3.org/1999/xlink" xml:space="preserve" xmlns:serif="http://www.serif.com/" style="fill-rule:evenodd;clip-rule:evenodd;stroke-linejoin:round;stroke-miterlimit:2;"><path d="M202,17.4l-18.3,-0l-5.6,-17.4l-5.7,17.4l-18.3,-0l14.8,10.8l-5.7,17.3l14.8,-10.8l14.8,10.8l-5.6,-17.4l14.8,-10.7Z" style="fill:#00b67a;fill-rule:nonzero;"/><path d="M188.5,32.1l-1.3,-3.9l-9.1,6.6l10.4,-2.7Z" style="fill:#005128;fill-rule:nonzero;"/><path d="M13.039,42.019l-3.419,0c-1.41,0 -2.555,-0.638 -3.436,-1.914c-0.914,-1.34 -1.371,-3.097 -1.371,-5.271c-0,-2.907 0.242,-5.814 0.727,-8.721c0.231,-1.58 0.514,-3.128 0.85,-4.645c0.336,-1.517 0.708,-2.838 1.115,-3.963l2.957,1.062c-0.385,1.125 -0.82,2.831 -1.305,5.119l-0.462,2.787l-0.397,3.109l-0.231,2.749l-0.083,2.238c0,1.567 0.259,2.654 0.777,3.26c0.418,0.493 1.09,0.74 2.015,0.74l2.263,-0c1.85,-0 3.618,-1.081 5.303,-3.242c1.486,-1.896 2.499,-4.032 3.039,-6.408l2.326,1.086l-1.616,-3.039l2.594,-1.706l5.616,10.768c0.441,0.91 0.815,1.517 1.123,1.82c0.386,0.481 0.727,0.721 1.025,0.721l7.78,-0c0.418,-0 0.842,-0.266 1.272,-0.796c0.429,-0.531 0.644,-1.081 0.644,-1.65l-0.017,-0.303l-1.618,-9.006l2.874,-1.061l1.454,8.057c0.264,1.681 0.473,2.648 0.627,2.901c0.452,1.239 1.14,1.858 2.065,1.858c0.562,-0 1.002,-0.259 1.322,-0.777c0.154,-0.278 0.269,-0.576 0.346,-0.892l0.083,-0.511l0.033,-0.55l-0.016,-0.398c-0,-0.165 -0.022,-0.316 -0.066,-0.455l-1.57,-8.191l2.891,-1.194l1.569,8.19c0.265,1.492 0.518,2.478 0.76,2.958c0.496,1.213 1.162,1.82 1.999,1.82c0.551,-0 0.999,-0.31 1.346,-0.929c0.347,-0.619 0.521,-1.277 0.521,-1.972l-0.017,-0.398c0,-0.164 -0.039,-0.354 -0.116,-0.569l-2.428,-7.811l2.792,-1.289l2.775,8.039l0.264,1.08l0.066,0.74l0.017,0.398c-0,1.63 -0.43,3.033 -1.289,4.209c-0.925,1.289 -2.142,1.933 -3.65,1.933c-0.881,0 -1.718,-0.24 -2.511,-0.72c-0.606,-0.341 -1.079,-0.803 -1.421,-1.384c-0.198,0.442 -0.561,0.904 -1.09,1.384c-0.628,0.493 -1.36,0.739 -2.197,0.739c-1.134,0 -2.054,-0.202 -2.759,-0.606c-0.594,-0.342 -1.095,-0.841 -1.503,-1.498c-0.264,0.594 -0.688,1.093 -1.272,1.498c-0.583,0.404 -1.255,0.606 -2.015,0.606l-8.325,0c-0.573,0 -1.162,-0.252 -1.768,-0.758c-0.606,-0.505 -1.118,-1.119 -1.536,-1.839c-0.529,0.796 -1.283,1.428 -2.263,1.896c-0.474,0.215 -0.991,0.385 -1.553,0.512l-0.842,0.133l-0.876,0.056c-1.498,0 -2.593,-0.278 -3.287,-0.834c-0.463,-0.379 -0.793,-0.967 -0.991,-1.763c-0.551,0.544 -1.446,1.112 -2.685,1.706c-1.238,0.594 -2.315,0.891 -3.229,0.891Zm10.735,-11.889l-0.014,0.552l-0.017,0.265l-0.115,0.493c-0.067,0.367 -0.204,0.797 -0.413,1.289l-1.058,2.313c-0.385,0.847 -0.578,1.505 -0.578,1.972c0,0.379 0.149,0.752 0.446,1.119c0.309,0.291 0.755,0.436 1.338,0.436c0.815,-0 1.542,-0.266 2.181,-0.796c0.638,-0.531 0.958,-1.163 0.958,-1.896c-0,-0.304 -0.099,-0.695 -0.298,-1.176l-2.43,-4.571Zm72.8,11.889l-10.192,0c-1.41,0 -2.555,-0.638 -3.436,-1.914c-0.914,-1.34 -1.371,-3.097 -1.371,-5.271c0,-2.907 0.242,-5.814 0.727,-8.721c0.231,-1.58 0.515,-3.128 0.851,-4.645c0.336,-1.517 0.707,-2.838 1.115,-3.963l2.957,1.062c-0.386,1.125 -0.821,2.831 -1.305,5.119l-0.463,2.787l-0.396,3.109l-0.232,2.749l-0.082,2.238c-0,1.567 0.259,2.654 0.776,3.26c0.419,0.493 1.09,0.74 2.015,0.74l8.871,-0c1.85,-0 3.618,-1.081 5.302,-3.242c1.487,-1.896 2.5,-4.032 3.04,-6.408l2.326,1.086l-1.616,-3.039l2.594,-1.706l5.616,10.768c0.44,0.91 0.815,1.517 1.123,1.82c0.386,0.481 0.727,0.721 1.024,0.721l3.469,-0c0.551,-0 1.055,-0.288 1.512,-0.863c0.457,-0.575 0.685,-1.235 0.685,-1.981c0,-0.316 -0.038,-0.607 -0.115,-0.872l-2.495,-8.38l2.809,-1.479l0.578,1.801l0.892,2.863l1.536,5.157l0.727,2.503c0.253,0.834 0.644,1.251 1.173,1.251l3.931,-0c-0.529,-0.721 -0.997,-1.548 -1.404,-2.484c-0.496,-1.175 -0.743,-2.319 -0.743,-3.431c-0,-1.846 0.765,-3.603 2.296,-5.271c1.442,-1.479 2.946,-2.218 4.509,-2.218l0.314,-0l0.43,0.076l5.599,1.232l-0.611,3.28l-3.981,-0.91l-0.528,-0.095l-0.578,-0.038c-1.212,0 -2.275,0.382 -3.189,1.147c-0.914,0.765 -1.371,1.716 -1.371,2.854c0,1.542 0.639,2.913 1.917,4.114c1.233,1.162 2.56,1.744 3.981,1.744l4.03,-0l0,3.45l-14.602,0c-0.628,0 -1.22,-0.189 -1.776,-0.568c-0.556,-0.38 -1.005,-0.879 -1.346,-1.498c-0.199,0.303 -0.413,0.569 -0.645,0.796l-0.347,0.304l-0.396,0.36c-0.573,0.404 -1.167,0.606 -1.784,0.606l-4.857,0c-0.572,0 -1.161,-0.252 -1.767,-0.758c-0.606,-0.505 -1.118,-1.119 -1.536,-1.839c-0.529,0.796 -1.283,1.428 -2.263,1.896c-0.474,0.215 -0.991,0.385 -1.553,0.512l-0.843,0.133l-0.875,0.056c-1.498,0 -2.593,-0.278 -3.287,-0.834c-0.463,-0.379 -0.793,-0.967 -0.991,-1.763c-0.551,0.544 -1.446,1.112 -2.685,1.706c-1.165,0.559 -2.186,0.855 -3.064,0.888l0,0.003Zm10.57,-11.889l-0.014,0.552l-0.017,0.265l-0.116,0.493c-0.066,0.367 -0.203,0.797 -0.413,1.289l-1.057,2.313c-0.385,0.847 -0.578,1.505 -0.578,1.972c0,0.379 0.149,0.752 0.446,1.119c0.308,0.291 0.754,0.436 1.338,0.436c0.815,-0 1.542,-0.266 2.181,-0.796c0.638,-0.531 0.958,-1.163 0.958,-1.896c-0,-0.304 -0.099,-0.695 -0.298,-1.176l-2.43,-4.571Zm-56.938,-12.473l-0.76,-0.076l-1.057,-0.019c-0.694,0 -1.299,0.038 -1.817,0.114l0,-3.735l0.248,-0.057l0.495,-0.095l1.173,-0.057l0.446,0l0.545,0.038l0.727,0.076l0,3.811Zm2.858,1.479l-0.05,0.474l-0.132,1.498l-0.099,1.971l-0.925,-0.17l-1.156,-0.095l-1.058,-0.019l-1.982,-0.095l-2.015,0.057l-0.727,0.057l-0.76,0.114l-0.132,-3.887l0.843,-0.171l0.941,-0.057l1.437,-0.037l1.305,-0.057l1.652,0.057l1.074,0.037l0.561,0.019c0.177,0 0.325,0.026 0.446,0.076c0.21,0.038 0.469,0.114 0.777,0.228Zm25.951,18.22c-0,1.251 -0.303,2.325 -0.909,3.223c-0.672,0.96 -1.58,1.44 -2.725,1.44l-6.178,0l-0,-3.45l5.385,-0c0.363,-0 0.638,-0.145 0.826,-0.436c0.176,-0.405 0.264,-0.765 0.264,-1.081c-0,-0.392 -0.072,-0.714 -0.215,-0.967l-5.286,-8.569l2.28,-2.237l5.666,8.816c0.594,0.935 0.892,2.022 0.892,3.261Zm47.293,-18.201l-0.05,0.474l-0.132,1.498l-0.099,1.971l-0.925,-0.17l-1.156,-0.095l-1.058,-0.019l-1.982,-0.095l-2.015,0.057l-0.727,0.057l-0.76,0.114l-0.132,-3.887l0.842,-0.171l0.942,-0.057l1.437,-0.037l1.305,-0.057l1.652,0.057l1.074,0.037l0.561,0.019c0.177,0 0.325,0.026 0.446,0.076c0.21,0.038 0.468,0.114 0.777,0.228Zm23.192,22.864l-2.907,0l0.049,-0.948l0.017,-1.156c-0,-3.261 -0.27,-7.103 -0.81,-11.527c-0.143,-1.251 -0.275,-2.326 -0.396,-3.223c-0.121,-0.898 -0.264,-1.801 -0.43,-2.711c-0.297,-1.732 -0.605,-3.185 -0.925,-4.361l3.122,-0.682l0.248,1.289l0.248,1.592l0.529,3.906c0.352,3.059 0.649,6.2 0.892,9.423l0.115,2.578l0.066,1.991l0.05,1.915l0.132,1.914Z"/></svg>