<?xml version="1.0" encoding="UTF-8" standalone="no"?><!DOCTYPE svg PUBLIC "-//W3C//DTD SVG 1.1//EN" "http://www.w3.org/Graphics/SVG/1.1/DTD/svg11.dtd"><svg width="100%" height="100%" viewBox="0 0 181 125" version="1.1" xmlns="http://www.w3.org/2000/svg" xmlns:xlink="http://www.w3.org/1999/xlink" xml:space="preserve" xmlns:serif="http://www.serif.com/" style="fill-rule:evenodd;clip-rule:evenodd;stroke-linejoin:round;stroke-miterlimit:2;"><path d="M158.004,89.122l-1.147,0.885l-1.196,0.836l-1.233,0.774l-1.256,0.725l-1.306,0.675l-1.329,0.626l-1.365,0.565l-1.378,0.527l-1.413,0.466l-1.426,0.428l-1.45,0.38l-1.474,0.33l-1.485,0.293l-1.498,0.256l-1.522,0.207l-1.534,0.17l-1.545,0.134l-1.546,0.083l-1.545,0.06l-1.557,0.022l-1.544,-0.014l-1.557,-0.051l-1.556,-0.075l-1.543,-0.113l-1.544,-0.137l-1.531,-0.173l-1.53,-0.198l-1.506,-0.223l-1.493,-0.259l-1.481,-0.271l-1.456,-0.296l-1.432,-0.32l-1.407,-0.344l-1.113,-0.293l0.413,0.421l0.657,0.595l0.743,0.633l0.803,0.646l0.828,0.645l0.816,0.634l0.78,0.596l0.365,0.273l0.341,0.274l0.329,0.26l0.28,0.236l1.156,0.907l1.206,0.882l1.28,0.883l0.67,0.436l0.695,0.46l0.72,0.461l0.743,0.486l0.756,0.497l0.78,0.523c0.341,0.224 0.423,0.679 0.2,1.021c-0.224,0.341 -0.678,0.423 -1.007,0.211l-0.78,-0.522l-0.756,-0.498l-0.744,-0.486l-0.719,-0.461l-0.695,-0.46l-0.683,-0.448l-1.316,-0.896l-1.255,-0.907l-1.181,-0.931l-0.28,-0.236l-0.316,-0.249l-0.341,-0.273l-0.366,-0.273l-0.377,-0.286l-0.402,-0.31l-0.816,-0.634l-0.84,-0.658l-0.816,-0.658l-0.779,-0.645l-0.705,-0.645l-0.584,-0.594l-0.267,-0.297l-0.23,-0.285l-0.194,-0.296l-0.157,-0.308l-0.119,-0.345l-0.022,-0.369l0.065,-0.33l0.112,-0.282l0.162,-0.231l0.185,-0.207l0.21,-0.182l0.234,-0.158l0.247,-0.145l0.258,-0.132l0.271,-0.121l0.283,-0.108l0.295,-0.095l0.32,-0.095l0.651,-0.178l0.7,-0.178l0.737,-0.19l0.762,-0.189l0.774,-0.226l0.786,-0.238l0.406,-0.132l0.443,-0.143l0.454,-0.131l0.479,-0.13l0.492,-0.143l0.516,-0.143l1.069,-0.272l1.13,-0.284l1.167,-0.296l1.204,-0.308l1.229,-0.308l1.253,-0.308l1.265,-0.319l1.253,-0.333l1.253,-0.332c0.381,-0.107 0.796,0.118 0.903,0.524c0.107,0.381 -0.117,0.797 -0.522,0.903l-1.254,0.332l-1.277,0.332l-1.266,0.32l-1.253,0.308l-1.228,0.308l-1.204,0.308l-1.167,0.296l-1.106,0.284l-1.057,0.285l-0.503,0.13l-0.48,0.131l-0.467,0.143l-0.454,0.131l-0.43,0.131l-0.406,0.131l-0.811,0.238l-0.799,0.226l-0.774,0.201l-0.737,0.19l-0.676,0.178l-0.626,0.178l-0.283,0.084l-0.258,0.083l-0.123,0.048l1.211,0.318l1.382,0.344l1.407,0.32l1.432,0.295l1.456,0.272l1.457,0.246l1.481,0.222l1.494,0.186l1.494,0.161l1.519,0.136l1.519,0.113l1.519,0.087l1.52,0.039l1.52,0.014l1.52,-0.011l1.521,-0.06l1.508,-0.096l1.497,-0.134l1.485,-0.17l1.473,-0.208l1.46,-0.244l1.449,-0.281l1.425,-0.331l1.413,-0.367l1.389,-0.417l1.352,-0.454l1.328,-0.503l1.304,-0.553l1.28,-0.602l1.244,-0.639l1.219,-0.688l1.171,-0.738l1.135,-0.8l1.098,-0.837l1.062,-0.898l1.013,-0.948l0.977,-1.01l0.916,-1.071l0.868,-1.121l0.832,-1.183l0.77,-1.245l0.723,-1.319l0.336,-0.672l0.325,-0.684l0.3,-0.709l0.288,-0.721l0.276,-0.734l0.264,-0.747l0.239,-0.771l0.228,-0.783l0.215,-0.796l0.191,-0.82l0.179,-0.833l0.166,-0.845l0.117,-0.748l0.092,-0.723l0.055,-0.712l0.018,-0.699l-0.018,-0.687l-0.031,-0.676l-0.068,-0.663l-0.105,-0.652l-0.117,-0.639l-0.154,-0.627l-0.179,-0.603l-0.203,-0.603l-0.228,-0.579l-0.253,-0.58l-0.277,-0.554l-0.301,-0.555l-0.327,-0.531l-0.351,-0.531l-0.376,-0.507l-0.388,-0.494l-0.4,-0.483l-0.437,-0.47l-0.45,-0.458l-0.462,-0.446l-0.487,-0.422l-0.499,-0.41l-0.511,-0.397l-0.524,-0.385l-0.549,-0.361l-0.561,-0.349l-0.573,-0.337l-0.585,-0.324l-0.586,-0.3l-0.598,-0.288l-0.611,-0.275l-0.611,-0.252l-1.283,-0.465l-1.308,-0.393l-1.236,-0.294l-0.224,0.391l-0.385,0.598l-0.422,0.561l-0.445,0.536l-0.471,0.511l-0.519,0.486l-0.531,0.449l-0.555,0.425l-0.592,0.387l-0.615,0.338l-0.64,0.313l-0.665,0.264l-0.688,0.215l-0.725,0.177l-0.749,0.128l-0.748,0.079l-0.724,0.03l-0.87,0.005l-0.956,-0.058l-0.514,-0.054l-0.502,-0.066l-0.514,-0.078l-0.514,-0.103l-0.514,-0.128l-0.489,-0.151l-0.476,-0.189l-0.452,-0.213l-0.439,-0.249l-0.402,-0.286l-0.365,-0.347l-0.291,-0.371l-0.145,-0.247l-0.109,-0.234l-0.096,-0.246l-0.059,-0.258l-0.046,-0.271l-0.023,-0.27l0.015,-0.282l0.039,-0.282l0.064,-0.282l0.076,-0.294l0.101,-0.293l0.137,-0.33l0.262,-0.452l0.346,-0.414l0.42,-0.34l0.468,-0.29l0.505,-0.253l0.566,-0.216l1.142,-0.296l1.265,-0.197l1.3,-0.111l0.674,-0.031l0.663,-0.018l0.662,0.006l0.649,0.018l0.625,0.018l0.613,0.03l0.588,0.03l0.551,0.042l0.515,0.029l0.465,0.029l0.417,0.028l0.38,0.016l1.396,0.111l1.421,0.185l0.391,0.077l0.188,-0.428l0.238,-0.599l0.201,-0.612l0.177,-0.636l0.153,-0.637l0.116,-0.649l0.079,-0.662l0.041,-0.479l0.004,-0.466l-0.021,-0.467l-0.045,-0.466l-0.082,-0.455l-0.106,-0.455l-0.131,-0.456l-0.156,-0.43l-0.18,-0.432l-0.205,-0.431l-0.217,-0.42l-0.254,-0.407l-0.278,-0.407l-0.291,-0.396l-0.315,-0.395l-0.328,-0.384l-0.352,-0.384l-0.365,-0.371l-0.79,-0.732l-0.84,-0.682l-0.89,-0.659l-0.926,-0.622l-0.963,-0.586l-0.976,-0.549l-1.001,-0.5l-0.232,-0.112l-0.468,0.216l-0.553,0.229l-0.615,0.215l-0.676,0.202l-0.725,0.202l-0.774,0.177l-0.81,0.165l-0.847,0.151l-0.86,0.14l-0.883,0.114l-0.884,0.09l-0.883,0.066l-0.871,0.029l-0.845,0.004l-0.821,-0.044l-0.784,-0.081l-0.735,-0.129l-0.379,-0.09l-0.342,-0.101l-0.33,-0.114l-0.318,-0.125l-0.305,-0.138l-0.281,-0.162l-0.28,-0.187l-0.256,-0.211l-0.231,-0.235l-0.206,-0.26l-0.169,-0.296l-0.12,-0.296l-0.108,-0.307l-0.071,-0.296l-0.046,-0.295l-0.01,-0.282l0.015,-0.282l0.064,-0.306l0.175,-0.465l0.298,-0.439l0.371,-0.34l0.419,-0.267l0.455,-0.204l0.492,-0.143l0.503,-0.106l0.54,-0.068l0.54,-0.044l0.564,-0.02l0.564,0.005l0.551,0.018l0.552,0.042l0.539,0.054l0.514,0.053l0.49,0.054l0.453,0.066l0.404,0.065l0.355,0.064l0.293,0.052l0.245,0.051l0.869,0.168l0.918,0.217l0.966,0.267l1.002,0.303l1.027,0.353l1.039,0.39l1.05,0.452l0.061,0.037l0.345,-0.242l0.581,-0.473l0.555,-0.498l0.52,-0.536l0.482,-0.548l0.459,-0.572l0.422,-0.585l0.385,-0.598l0.349,-0.635l0.324,-0.635l0.3,-0.66l0.263,-0.673l0.226,-0.685l0.19,-0.698l0.153,-0.71l0.141,-0.723l0.105,-0.736l0.079,-0.735l0.056,-0.736l0.006,-0.737l-0.018,-0.736l-0.043,-0.737l-0.067,-0.737l-0.104,-0.749l-0.129,-0.726l-0.153,-0.725l-0.19,-0.714l-0.214,-0.714l-0.252,-0.701l-0.264,-0.69l-0.3,-0.678l-0.313,-0.665l-0.35,-0.654l-0.375,-0.63l-0.399,-0.605l-0.424,-0.605l-0.449,-0.581l-0.473,-0.556l-0.498,-0.533l-0.523,-0.508l-0.547,-0.483l-0.56,-0.447l-0.585,-0.423l-0.61,-0.398l-0.634,-0.374l-0.647,-0.338l-0.684,-0.3l-0.708,-0.277c-0.379,-0.138 -0.572,-0.558 -0.421,-0.949c0.138,-0.379 0.556,-0.572 0.935,-0.433l0.745,0.289l0.745,0.338l0.782,0.277l0.696,0.412l0.67,0.436l0.658,0.472l0.621,0.484l0.596,0.533l0.572,0.558l0.546,0.582l0.522,0.606l0.473,0.63l0.46,0.643l0.436,0.666l0.411,0.691l0.374,0.703l0.349,0.728l0.312,0.739l0.288,0.739l0.263,0.763l0.227,0.776l0.201,0.775l0.165,0.787l0.141,0.786l0.116,0.787l0.079,0.798l0.054,0.799l0.018,0.81l-0.019,0.797l-0.044,0.798l-0.08,0.784l-0.105,0.785l-0.154,0.784l-0.19,0.771l-0.215,0.772l-0.252,0.758l-0.276,0.734l-0.313,0.721l-0.349,0.709l-0.386,0.696l-0.435,0.671l-0.459,0.646l-0.495,0.634l-0.545,0.608l-0.569,0.584l-0.618,0.559l-0.395,0.316l0.538,0.275l1.024,0.574l1.013,0.61l0.987,0.66l0.95,0.696l0.901,0.744l0.839,0.781l0.413,0.422l0.389,0.42l0.364,0.421l0.352,0.433l0.327,0.457l0.302,0.457l0.291,0.469l0.253,0.481l0.241,0.493l0.204,0.505l0.192,0.517l0.154,0.529l0.131,0.529l0.093,0.541l0.057,0.553l0.032,0.553l-0.005,0.564l-0.042,0.576l-0.092,0.724l-0.128,0.71l-0.166,0.698l-0.189,0.698l-0.227,0.685l-0.263,0.673l-0.063,0.159l0.942,0.217l1.382,0.418l1.332,0.491l0.672,0.264l0.647,0.288l0.647,0.313l0.622,0.337l0.623,0.337l0.61,0.349l0.585,0.374l0.585,0.398l0.573,0.41l0.56,0.422l0.535,0.447l0.524,0.459l0.498,0.483l0.486,0.496l0.474,0.507l0.449,0.532l0.424,0.532l0.4,0.556l0.388,0.568l0.362,0.592l0.326,0.605l0.313,0.616l0.277,0.629l0.252,0.652l0.227,0.653l0.203,0.677l0.166,0.688l0.141,0.714l0.104,0.725l0.079,0.725l0.043,0.736l0.018,0.761l-0.019,0.773l-0.056,0.785l-0.092,0.797l-0.13,0.809l-0.167,0.895l-0.191,0.869l-0.203,0.857l-0.228,0.833l-0.24,0.82l-0.252,0.808l-0.277,0.783l-0.288,0.77l-0.301,0.758l-0.325,0.734l-0.337,0.721l-0.361,0.72l-0.748,1.368l-0.808,1.306l-0.868,1.244l-0.918,1.194l-1.039,1.12l-1.027,1.058l-1.062,0.997l-1.112,0.947Zm-18.433,-57.754l-0.966,-0.34l-0.941,-0.291l-0.917,-0.242l-0.869,-0.192l-0.832,-0.155l-0.233,-0.039l-0.294,-0.051l-0.342,-0.053l-0.392,-0.052l-0.429,-0.066l-0.465,-0.053l-0.49,-0.054l-0.502,-0.041l-0.515,-0.029l-0.514,-0.03l-0.515,-0.004l-0.491,0.02l-0.478,0.032l-0.43,0.058l-0.405,0.082l-0.356,0.107l-0.283,0.132l-0.222,0.146l-0.161,0.133l-0.087,0.134l-0.063,0.208l-0.013,0.062l-0.013,0.11l0.011,0.135l0.024,0.148l0.047,0.172l0.072,0.197l0.06,0.135l0.073,0.124l0.097,0.123l0.121,0.124l0.134,0.112l0.159,0.112l0.183,0.112l0.219,0.1l0.232,0.088l0.257,0.089l0.269,0.076l0.282,0.064l0.648,0.116l0.698,0.068l0.748,0.043l0.784,0.008l0.809,-0.018l0.822,-0.053l0.835,-0.091l0.834,-0.115l0.822,-0.127l0.799,-0.153l0.773,-0.152l0.725,-0.177l0.688,-0.191l0.615,-0.19l0.221,-0.072l-0.843,-0.339Zm9.573,18.718l-1.36,-0.098l-0.355,-0.016l-0.417,-0.028l-0.465,-0.029l-0.502,-0.041l-0.54,-0.03l-0.563,-0.03l-0.588,-0.029l-0.601,-0.018l-0.625,-0.018l-0.637,-0.006l-0.625,0.006l-0.613,0.019l-1.239,0.099l-1.142,0.174l-1.02,0.273l-0.406,0.156l-0.381,0.18l-0.308,0.206l-0.26,0.206l-0.185,0.207l-0.15,0.269l-0.075,0.196l-0.063,0.208l-0.051,0.196l-0.038,0.183l-0.014,0.16l-0.001,0.147l0.011,0.135l0.024,0.123l0.023,0.123l0.036,0.111l0.048,0.098l0.049,0.075l0.182,0.234l0.206,0.186l0.256,0.187l0.305,0.187l0.354,0.163l0.391,0.15l0.416,0.127l0.44,0.102l0.453,0.09l0.465,0.078l0.465,0.053l0.454,0.041l0.894,0.045l0.785,0.008l0.65,-0.031l0.662,-0.068l0.639,-0.117l0.626,-0.153l0.59,-0.191l0.578,-0.228l0.566,-0.265l0.53,-0.302l0.506,-0.327l0.493,-0.363l0.469,-0.389l0.445,-0.413l0.421,-0.463l0.396,-0.487l0.36,-0.5l0.286,-0.427l-1.25,-0.134Z" style="fill:none;fill-rule:nonzero;"/><path d="M71.326,91.396l-5.147,0l0.02,0.414c0,0.945 -0.37,1.727 -1.109,2.347c-0.738,0.62 -1.587,0.93 -2.544,0.93l-2.236,0c-1.253,0 -2.236,-0.445 -2.949,-1.335c-0.713,-0.89 -1.069,-1.987 -1.069,-3.291l0,-3.036l2.264,0l0,3.595c0,0.463 0.164,0.877 0.492,1.243c0.327,0.366 0.841,0.55 1.542,0.55l1.898,0l0.28,-0.01c0.064,0 0.144,-0.023 0.241,-0.067c0.128,-0.039 0.295,-0.126 0.501,-0.261c0.135,-0.077 0.234,-0.192 0.299,-0.347c0.064,-0.154 0.096,-0.314 0.096,-0.482c-0.039,-0.212 -0.308,-0.318 -0.81,-0.318l-1.146,0.02l-0.714,0c-0.109,0 -0.212,0.016 -0.308,0.048l-0.222,-2.274l10.621,0c0.16,0 0.273,-0.081 0.337,-0.241c0,-0.129 -0.071,-0.267 -0.212,-0.415l-3.855,-3.999l-0.357,-2.053l6.178,-2.255l0.337,2.294l-3.594,1.358l0.53,0.55l0.954,1.012l1.58,1.696c0.514,0.572 0.771,1.204 0.771,1.898c0,0.521 -0.217,1.056 -0.65,1.605c-0.434,0.549 -1.107,0.824 -2.019,0.824Zm14.562,-0l-3.663,-0c-0.141,-0 -0.241,-0.016 -0.298,-0.048c-0.09,-0 -0.228,-0.065 -0.415,-0.193c0,0.604 -0.109,1.132 -0.327,1.585c-0.219,0.453 -0.563,0.885 -1.032,1.297c-0.796,0.7 -1.712,1.05 -2.746,1.05l-2.246,-0l-0.337,-2.274l2.486,-0c0.502,-0 0.948,-0.167 1.34,-0.502c0.392,-0.334 0.588,-0.751 0.588,-1.252l0,-5.098l2.274,-0l0,2.534c0,0.186 0.081,0.357 0.241,0.511c0.154,0.077 0.501,0.116 1.041,0.116l2.621,-0c0.232,-0 0.421,-0.058 0.569,-0.174l0.077,-0.193c0.026,-0.077 0.04,-0.147 0.043,-0.212c0.004,-0.064 0.005,-0.115 0.005,-0.154l0,-2.428l2.304,-0l0,2.63c0,0.752 -0.241,1.408 -0.723,1.966c-0.482,0.559 -1.083,0.839 -1.802,0.839Zm-64.04,19.721c-0.04,-0.008 -0.072,-0.019 -0.096,-0.032c-0.084,0 -0.222,-0.064 -0.415,-0.193c0,0.604 -0.109,1.132 -0.327,1.585c-0.219,0.453 -0.563,0.885 -1.032,1.297c-0.796,0.7 -1.712,1.05 -2.746,1.05l-2.246,0l-0.337,-2.274l2.486,0c0.495,0 0.942,-0.171 1.34,-0.511c0.398,-0.341 0.597,-0.755 0.597,-1.243l0,-5.098l2.265,0l0,2.534c0,0.187 0.081,0.357 0.241,0.511c0.154,0.077 0.501,0.116 1.041,0.116l0.771,0c0.848,0 1.434,-0.039 1.759,-0.116c0.324,-0.077 0.486,-0.283 0.486,-0.617l0,-2.428l2.313,0l0,2.428c0,0.328 0.071,0.54 0.212,0.636c0.103,0.026 0.272,0.048 0.506,0.068c0.235,0.019 0.522,0.029 0.863,0.029l4.182,0c0.174,0 0.261,-0.084 0.261,-0.251l-0.126,-0.173l-0.414,-0.502l-0.964,-1.031l-0.53,-0.568l-2.033,-2.111l-0.338,-2.091l6.197,-2.236l0.338,2.294l-1.07,0.433l-2.487,0.945l3.614,4.009c0.457,0.514 0.832,0.877 1.128,1.089c0.218,0.128 0.613,0.193 1.185,0.193l1.456,0c0.25,0 0.443,-0.058 0.578,-0.174c0.077,-0.128 0.115,-0.315 0.115,-0.559l0,-2.428l2.313,0l-0.019,2.631c0,0.732 -0.238,1.383 -0.713,1.951c-0.476,0.569 -1.076,0.853 -1.802,0.853l-2.814,0l0,-0.02c-0.284,-0.022 -0.541,-0.064 -0.771,-0.125c-0.142,-0.032 -0.322,-0.099 -0.54,-0.202l-0.27,-0.173l-0.26,-0.251c-0.129,0.186 -0.371,0.361 -0.728,0.525c-0.356,0.164 -0.792,0.246 -1.306,0.246l-5.03,0c-0.508,0 -0.856,-0.021 -1.046,-0.063c-0.189,-0.041 -0.474,-0.181 -0.853,-0.419c-0.103,0.071 -0.276,0.151 -0.52,0.241l-0.27,0.068l-0.424,0.067l-0.935,0.077l-1.359,0.029l-1.426,0l0,-0.016Zm44.9,0.005c-0.495,-0.017 -0.874,-0.055 -1.137,-0.114c-0.174,-0.02 -0.318,-0.056 -0.434,-0.111c-0.116,-0.055 -0.228,-0.13 -0.337,-0.227l-0.289,0.174l-0.328,0.144l-0.357,0.097l-0.385,0.048l-7.758,0c-0.655,0 -1.234,-0.279 -1.735,-0.838c-0.501,-0.559 -0.751,-1.215 -0.751,-1.966l0,-2.631l2.303,0l0,2.428c0,0.193 0.006,0.312 0.019,0.357c0,0.077 0.032,0.159 0.096,0.246c0.065,0.086 0.251,0.13 0.559,0.13l6.795,0c0.167,0 0.337,-0.039 0.51,-0.116c0.116,-0.077 0.174,-0.283 0.174,-0.617l0,-2.428l2.313,0l0,2.428c0,0.238 0.064,0.431 0.193,0.578c0.077,0.039 0.212,0.078 0.404,0.116l0.82,0.039l1.031,0c-0.154,-0.232 -0.27,-0.473 -0.347,-0.723c-0.077,-0.251 -0.116,-0.524 -0.116,-0.819c0,-0.726 0.28,-1.391 0.839,-1.995c0.559,-0.604 1.326,-0.906 2.303,-0.906c0.848,0 1.543,0.319 2.086,0.959c0.543,0.639 0.815,1.373 0.815,2.202c0,0.122 -0.003,0.231 -0.01,0.328c-0.006,0.096 -0.019,0.183 -0.038,0.26l-0.087,0.366l-0.145,0.328l6.081,0c0.174,0 0.261,-0.084 0.261,-0.251l-0.126,-0.173l-0.414,-0.502l-0.964,-1.031l-0.53,-0.568l-2.033,-2.111l-0.338,-2.091l6.197,-2.236l0.337,2.294l-1.069,0.433l-2.487,0.945l3.614,4.009c0.456,0.514 0.832,0.877 1.128,1.089c0.218,0.128 0.613,0.193 1.185,0.193l1.186,0l0.26,-0.029l0.192,-0.126c0.103,-0.09 0.155,-0.263 0.155,-0.52l0,-2.486l2.274,0l0,2.592c0,0.206 0.09,0.395 0.27,0.569c0.167,0.096 0.36,0.163 0.578,0.202c0.392,0 0.588,-0.173 0.588,-0.52l0,-2.843l2.274,0l0,2.592c0,0.206 0.09,0.395 0.27,0.569c0.167,0.096 0.36,0.163 0.578,0.202c0.11,0 0.241,-0.039 0.396,-0.116c0.09,-0.077 0.16,-0.212 0.212,-0.404l0,-2.843l2.274,0l0,2.669c0,0.945 -0.241,1.677 -0.723,2.197c-0.482,0.521 -1.076,0.781 -1.783,0.781c-0.751,0 -1.423,-0.283 -2.014,-0.848c-0.565,0.552 -1.172,0.829 -1.821,0.829c-0.161,0 -0.318,-0.02 -0.473,-0.058l-0.289,-0.087l-0.241,-0.115c-0.314,-0.148 -0.645,-0.396 -0.992,-0.743c-0.289,0.27 -0.63,0.479 -1.022,0.627l-0.867,0.183l-2.274,0l0,-0.029c-0.243,-0.024 -0.464,-0.063 -0.665,-0.116c-0.142,-0.032 -0.322,-0.099 -0.54,-0.202l-0.27,-0.173l-0.26,-0.251c-0.129,0.186 -0.371,0.361 -0.728,0.525c-0.356,0.164 -0.792,0.246 -1.306,0.246l-6.312,0c-0.63,0 -1.105,-0.029 -1.426,-0.087c-0.399,-0.038 -0.652,-0.135 -0.762,-0.289c-0.212,0.251 -1.22,0.376 -3.026,0.376l-1.561,0l0,-0.011Zm5.291,-3.564c0,-0.296 -0.103,-0.558 -0.309,-0.786c-0.205,-0.228 -0.443,-0.342 -0.713,-0.342c-0.27,0 -0.501,0.087 -0.694,0.26c-0.083,0.084 -0.151,0.177 -0.202,0.28c-0.051,0.103 -0.077,0.218 -0.077,0.347c0,0.096 0.021,0.202 0.063,0.318c0.041,0.115 0.12,0.26 0.236,0.433c0.192,0.232 0.523,0.457 0.992,0.675c0.469,-0.315 0.704,-0.71 0.704,-1.185Zm0.867,-27.948l-5.724,2.052l-0.155,-0.848l5.744,-2.13l0.135,0.926Zm7.103,1.561c0,0.327 -0.145,0.642 -0.434,0.944c-0.103,0.09 -0.254,0.183 -0.453,0.28c-0.212,0.064 -0.389,0.096 -0.53,0.096c-0.347,0 -0.678,-0.119 -0.992,-0.356c-0.277,-0.245 -0.415,-0.566 -0.415,-0.964c0,-0.328 0.143,-0.611 0.429,-0.848c0.286,-0.238 0.612,-0.357 0.978,-0.357l0.231,0.01c0.103,0 0.209,0.022 0.318,0.067c0.135,0.039 0.286,0.126 0.453,0.26c0.277,0.2 0.415,0.489 0.415,0.868Zm1.561,2.467c0,0.334 -0.145,0.646 -0.434,0.935c-0.147,0.128 -0.298,0.225 -0.453,0.289l-0.241,0.067l-0.269,0.029c-0.347,0 -0.672,-0.119 -0.974,-0.356c-0.276,-0.244 -0.414,-0.566 -0.414,-0.964c0,-0.308 0.127,-0.586 0.381,-0.834c0.253,-0.247 0.589,-0.371 1.007,-0.371c0.392,0 0.719,0.113 0.983,0.338c0.276,0.199 0.414,0.488 0.414,0.867Zm-3.161,0c0,0.347 -0.138,0.662 -0.414,0.944c-0.283,0.251 -0.604,0.376 -0.964,0.376c-0.353,0 -0.681,-0.119 -0.983,-0.356c-0.276,-0.238 -0.414,-0.559 -0.414,-0.964c0,-0.321 0.136,-0.602 0.409,-0.843c0.273,-0.241 0.602,-0.362 0.988,-0.362l0.279,0.01c0.065,0 0.145,0.022 0.241,0.067c0.129,0.039 0.277,0.126 0.444,0.261c0.276,0.199 0.414,0.488 0.414,0.867Zm10.042,10.138c0,0.328 -0.138,0.64 -0.414,0.935c-0.116,0.103 -0.267,0.191 -0.453,0.265c-0.187,0.074 -0.363,0.111 -0.53,0.111c-0.36,0 -0.688,-0.119 -0.983,-0.357c-0.264,-0.244 -0.395,-0.562 -0.395,-0.954c0,-0.327 0.125,-0.623 0.375,-0.886c0.122,-0.09 0.277,-0.171 0.463,-0.241c0.173,-0.052 0.353,-0.077 0.54,-0.077c0.385,0 0.714,0.107 0.987,0.323c0.274,0.215 0.41,0.509 0.41,0.881Zm-3.016,0c0,0.328 -0.139,0.64 -0.415,0.935c-0.122,0.103 -0.271,0.191 -0.448,0.265c-0.177,0.074 -0.355,0.111 -0.535,0.111c-0.347,0 -0.678,-0.119 -0.992,-0.357c-0.264,-0.25 -0.396,-0.568 -0.396,-0.954c0,-0.321 0.126,-0.616 0.376,-0.886c0.135,-0.097 0.289,-0.174 0.463,-0.232c0.173,-0.057 0.356,-0.086 0.549,-0.086c0.341,0 0.659,0.106 0.954,0.318c0.296,0.212 0.444,0.507 0.444,0.886Zm10.658,-2.621c0,0.983 -0.396,1.884 -1.19,2.703c-0.793,0.819 -1.771,1.229 -2.934,1.229l-2.227,0l-0.337,-2.274l2.332,0c0.553,0 1.006,-0.139 1.359,-0.415c0.148,-0.109 0.285,-0.254 0.41,-0.433c0.125,-0.18 0.226,-0.376 0.303,-0.588c-1.118,0 -2.025,-0.219 -2.722,-0.656c-0.697,-0.437 -1.046,-1.272 -1.046,-2.505c0,-1.433 0.28,-2.381 0.839,-2.843c0.559,-0.463 1.285,-0.694 2.178,-0.694c1.252,0 2.072,0.416 2.457,1.248c0.386,0.832 0.578,1.964 0.578,3.397l0,1.831Zm-2.264,-2.033l0,-1.147c0,-0.187 -0.016,-0.315 -0.049,-0.386c-0.019,-0.109 -0.07,-0.215 -0.154,-0.318c-0.115,-0.186 -0.305,-0.279 -0.568,-0.279c-0.212,0 -0.395,0.077 -0.55,0.231c-0.109,0.167 -0.163,0.466 -0.163,0.896c0,0.347 0.099,0.617 0.298,0.81c0.244,0.128 0.64,0.193 1.186,0.193Zm-72.704,13.087c0,0.366 -0.148,0.694 -0.443,0.983c-0.296,0.289 -0.649,0.434 -1.06,0.434c-0.219,0 -0.415,-0.031 -0.588,-0.092c-0.174,-0.061 -0.325,-0.153 -0.453,-0.275c-0.128,-0.122 -0.244,-0.279 -0.347,-0.472c-0.064,-0.238 -0.096,-0.43 -0.096,-0.578c0,-0.405 0.135,-0.723 0.404,-0.954c0.27,-0.231 0.63,-0.347 1.08,-0.347l0.318,0.01c0.064,0 0.109,0.006 0.135,0.019c0.045,0 0.122,0.022 0.231,0.067c0.116,0.026 0.241,0.103 0.376,0.232c0.128,0.109 0.241,0.247 0.337,0.414l0.077,0.251l0.029,0.308Zm7.334,11.304c0,0.328 -0.138,0.64 -0.414,0.935c-0.135,0.116 -0.285,0.207 -0.448,0.275c-0.164,0.067 -0.336,0.101 -0.516,0.101c-0.385,-0 -0.723,-0.125 -1.012,-0.376c-0.103,-0.103 -0.202,-0.241 -0.299,-0.414c-0.064,-0.212 -0.096,-0.386 -0.096,-0.521c0,-0.321 0.125,-0.616 0.376,-0.886l0.472,-0.241l0.251,-0.058l0.308,-0.019c0.347,-0 0.663,0.106 0.949,0.318c0.286,0.212 0.429,0.507 0.429,0.886Zm-3.016,-0c0,0.328 -0.138,0.633 -0.415,0.916c-0.128,0.128 -0.274,0.226 -0.438,0.294c-0.164,0.067 -0.339,0.101 -0.525,0.101c-0.367,-0 -0.693,-0.124 -0.979,-0.371c-0.285,-0.247 -0.428,-0.561 -0.428,-0.94c0,-0.327 0.125,-0.623 0.375,-0.886l0.473,-0.241l0.25,-0.058l0.309,-0.019c0.34,-0 0.655,0.106 0.944,0.318c0.289,0.212 0.434,0.507 0.434,0.886Zm9.791,-14.166l-5.744,2.052l-0.144,-0.848l5.744,-2.13l0.144,0.926Zm6.12,4.279c0,0.359 -0.145,0.703 -0.434,1.031c-0.109,0.103 -0.266,0.202 -0.472,0.299c-0.238,0.064 -0.431,0.096 -0.578,0.096c-0.45,-0 -0.805,-0.129 -1.065,-0.386c-0.26,-0.257 -0.391,-0.604 -0.391,-1.04c0,-0.405 0.132,-0.72 0.396,-0.945c0.263,-0.225 0.616,-0.337 1.06,-0.337l0.25,0.009c0.097,-0 0.209,0.023 0.338,0.068c0.154,0.038 0.314,0.125 0.481,0.26c0.277,0.206 0.415,0.521 0.415,0.945Zm6.235,7.507l-2.274,-0l0,-9.637l2.274,-0l0,9.637Zm14.61,-7.382c0,0.315 -0.138,0.623 -0.414,0.925l-0.26,0.174l-0.203,0.106l-0.241,0.067l-0.27,0.029c-0.404,-0 -0.738,-0.121 -1.002,-0.361c-0.263,-0.241 -0.395,-0.555 -0.395,-0.94c0,-0.122 0.003,-0.209 0.01,-0.26c0.006,-0.052 0.033,-0.137 0.082,-0.256c0.048,-0.119 0.143,-0.245 0.284,-0.38c0.257,-0.219 0.597,-0.328 1.021,-0.328c0.399,-0 0.73,0.108 0.993,0.323c0.263,0.215 0.395,0.515 0.395,0.901Zm-3.026,0c0,0.34 -0.138,0.649 -0.414,0.925l-0.174,0.135l-0.26,0.145l-0.251,0.067l-0.279,0.029c-0.398,0 -0.736,-0.119 -1.012,-0.357c-0.257,-0.244 -0.385,-0.559 -0.385,-0.944c0,-0.379 0.122,-0.678 0.366,-0.896c0.276,-0.219 0.62,-0.328 1.031,-0.328c0.379,0 0.703,0.106 0.973,0.318c0.27,0.212 0.405,0.514 0.405,0.906Zm13.338,-1.638c0,0.346 -0.138,0.661 -0.414,0.944l-0.193,0.145l-0.241,0.134c-0.212,0.065 -0.389,0.097 -0.53,0.097c-0.411,0 -0.747,-0.129 -1.007,-0.386c-0.26,-0.257 -0.39,-0.568 -0.39,-0.934c0,-0.322 0.126,-0.603 0.38,-0.844c0.254,-0.241 0.593,-0.361 1.017,-0.361c0.392,0 0.719,0.103 0.983,0.308c0.263,0.206 0.395,0.505 0.395,0.897Zm8.847,-2.766l-5.744,2.052l-0.144,-0.848l5.743,-2.13l0.145,0.926Zm11.266,2.072c0,0.34 -0.145,0.655 -0.434,0.944c-0.102,0.09 -0.253,0.183 -0.453,0.28c-0.212,0.064 -0.388,0.096 -0.53,0.096c-0.347,-0 -0.678,-0.119 -0.992,-0.357c-0.277,-0.237 -0.415,-0.559 -0.415,-0.963c0,-0.328 0.143,-0.611 0.429,-0.848c0.286,-0.238 0.612,-0.357 0.978,-0.357l0.232,0.01c0.102,-0 0.208,0.022 0.318,0.067c0.135,0.039 0.286,0.125 0.453,0.26c0.276,0.199 0.414,0.489 0.414,0.868Zm1.561,2.467c0,0.34 -0.144,0.652 -0.433,0.935c-0.148,0.128 -0.299,0.224 -0.453,0.289l-0.241,0.067l-0.27,0.029c-0.347,-0 -0.665,-0.116 -0.954,-0.347c-0.289,-0.231 -0.434,-0.556 -0.434,-0.973c0,-0.309 0.127,-0.586 0.381,-0.834c0.254,-0.247 0.589,-0.371 1.007,-0.371c0.392,-0 0.719,0.113 0.983,0.337c0.276,0.2 0.414,0.489 0.414,0.868Zm-3.161,-0c0,0.347 -0.138,0.662 -0.414,0.944c-0.283,0.251 -0.604,0.376 -0.964,0.376c-0.328,-0 -0.642,-0.117 -0.944,-0.352c-0.302,-0.234 -0.453,-0.557 -0.453,-0.968c0,-0.321 0.136,-0.603 0.409,-0.843c0.273,-0.241 0.603,-0.362 0.988,-0.362l0.28,0.01c0.064,-0 0.144,0.022 0.24,0.067c0.129,0.039 0.277,0.126 0.444,0.26c0.276,0.2 0.414,0.489 0.414,0.868Z" style="fill:none;fill-rule:nonzero;"/></svg>